<svg width="19" height="21" viewBox="0 0 19 21" fill="none" xmlns="http://www.w3.org/2000/svg">
<path fill-rule="evenodd" clip-rule="evenodd" d="M8.19565 0.0725502C6.88738 0.28841 5.59775 0.983617 4.7694 1.91958C2.73966 4.21304 2.8507 7.52614 5.02829 9.64389C7.19914 11.755 10.6153 11.8674 12.96 9.90495C13.6832 9.29959 14.3512 8.31787 14.6536 7.41599C15.5309 4.79905 14.3364 1.93034 11.8429 0.666393C10.6979 0.0858836 9.39777 -0.125785 8.19565 0.0725502ZM9.76967 1.67034C11.9953 2.00524 13.5604 4.05516 13.2363 6.21073C12.8026 9.09509 9.50304 10.6083 6.96253 9.08782C5.51009 8.21857 4.7331 6.53396 5.04917 4.9393C5.48209 2.7551 7.53427 1.33397 9.76967 1.67034ZM14.5978 10.5078C14.4771 10.5659 14.3341 10.6852 14.2799 10.7729C14.0161 11.2001 14.0901 11.4763 14.6176 12.0333C15.7857 13.267 16.4773 14.832 16.5893 16.4952C16.6337 17.1536 16.5863 17.2863 16.1729 17.6625C14.5841 19.1078 9.91166 19.784 5.98845 19.1363C4.29265 18.8563 2.78952 18.2954 2.12014 17.6927C1.68161 17.2979 1.63014 17.1643 1.67039 16.5253C1.77426 14.8743 2.47158 13.2661 3.59699 12.0821C4.01683 11.6404 4.11197 11.4603 4.07837 11.1708C4.01568 10.63 3.38697 10.2819 2.90876 10.5234C2.7099 10.6238 2.1406 11.2124 1.76611 11.7048C0.70826 13.0956 0.100372 14.7669 0.00798112 16.5385C-0.0421872 17.4999 0.136414 17.9978 0.764609 18.6479C2.99336 20.9542 9.87432 21.7346 14.63 20.2204C15.932 19.8059 16.8826 19.2831 17.5043 18.6396C18.124 17.9983 18.3029 17.4961 18.2529 16.5385C18.1417 14.4048 17.2654 12.3884 15.8086 10.9132C15.2883 10.3865 15.0297 10.2999 14.5978 10.5078Z" fill="#262626"/>
</svg>
