<svg width="22" height="22" viewBox="0 0 22 22" fill="none" xmlns="http://www.w3.org/2000/svg">
<path d="M9.13958 1H1V9.13958H9.13958V1Z" stroke="#262626" stroke-width="2" stroke-linecap="round" stroke-linejoin="round"/>
<path d="M12.8605 5.06979C12.8605 7.31747 14.6826 9.13958 16.9303 9.13958C19.1779 9.13958 21.0001 7.31747 21.0001 5.06979C21.0001 2.82211 19.1779 1 16.9303 1C14.6826 1 12.8605 2.82211 12.8605 5.06979Z" stroke="#262626" stroke-width="2" stroke-linecap="round" stroke-linejoin="round"/>
<path d="M19.0001 12.8613H14.8605C13.7559 12.8613 12.8605 13.7568 12.8605 14.8613V19.0009C12.8605 20.1055 13.7559 21.0009 14.8605 21.0009H19.0001C20.1046 21.0009 21.0001 20.1055 21.0001 19.0009V14.8613C21.0001 13.7568 20.1046 12.8613 19.0001 12.8613Z" stroke="#262626" stroke-width="2" stroke-linecap="round" stroke-linejoin="round"/>
<path d="M7.13958 12.8613H3C1.89543 12.8613 1 13.7568 1 14.8613V19.0009C1 20.1055 1.89543 21.0009 3 21.0009H7.13958C8.24415 21.0009 9.13958 20.1055 9.13958 19.0009V14.8613C9.13958 13.7568 8.24415 12.8613 7.13958 12.8613Z" stroke="#262626" stroke-width="2" stroke-linecap="round" stroke-linejoin="round"/>
</svg>
