<svg width="23" height="23" viewBox="0 0 23 23" fill="none" xmlns="http://www.w3.org/2000/svg">
<path d="M8.63619 22C9.16337 22 9.59073 21.5523 9.59073 21C9.59073 20.4477 9.16337 20 8.63619 20C8.10901 20 7.68164 20.4477 7.68164 21C7.68164 21.5523 8.10901 22 8.63619 22Z" stroke="#262626" stroke-width="2" stroke-linecap="round" stroke-linejoin="round"/>
<path d="M19.1364 22C19.6636 22 20.091 21.5523 20.091 21C20.091 20.4477 19.6636 20 19.1364 20C18.6092 20 18.1819 20.4477 18.1819 21C18.1819 21.5523 18.6092 22 19.1364 22Z" stroke="#262626" stroke-width="2" stroke-linecap="round" stroke-linejoin="round"/>
<path d="M1 1H4.81818L7.37636 14.39C7.46365 14.8504 7.70273 15.264 8.05175 15.5583C8.40077 15.8526 8.83748 16.009 9.28545 16H18.5636C19.0116 16.009 19.4483 15.8526 19.7973 15.5583C20.1464 15.264 20.3854 14.8504 20.4727 14.39L22 6H5.77273" stroke="#262626" stroke-width="2" stroke-linecap="round" stroke-linejoin="round"/>
</svg>
