<svg width="38" height="38" viewBox="0 0 38 38" fill="none" xmlns="http://www.w3.org/2000/svg">
<rect width="38" height="38" rx="6" fill="#0367FF"/>
<path d="M9.01856 24.1146L26.2771 15.7185C27.7564 14.9989 28.3999 13.0808 27.6986 11.4818L9.01856 19.3137L9.01856 24.1146Z" fill="white"/>
<path d="M9 9H24.4746C26.4216 9 28 10.7305 28 12.8651H9V9Z" fill="white"/>
<path d="M21.5 28H12.5254C10.5784 28 9 26.2695 9 24.1349H21.5V28Z" fill="white"/>
<path d="M29 20C29 21.5118 29.6754 22.894 30.7592 23.8874C31.8429 24.8809 33.3508 25.5 35 25.5C33.3508 25.5 31.8429 26.1191 30.7592 27.1126C29.6754 28.106 29 29.4738 29 31C29 29.4882 28.3246 28.106 27.2408 27.1126C26.1571 26.1191 24.6649 25.5 23 25.5C26.3298 25.5 29 23.038 29 20Z" fill="white"/>
</svg>
