<svg width="7" height="7" viewBox="0 0 7 7" fill="none" xmlns="http://www.w3.org/2000/svg">
<path d="M0.384746 3.67909L1.42365 4.46251L1.0291 5.72413C0.965339 5.9198 0.964532 6.13151 1.0268 6.32769C1.08906 6.52388 1.21107 6.69403 1.37462 6.81279C1.53538 6.93536 1.73018 7.00102 1.93002 6.99999C2.12985 6.99896 2.32401 6.93129 2.48357 6.80706L3.49942 6.03509L4.51556 6.80616C4.67602 6.92803 4.86978 6.99422 5.06897 6.99522C5.26816 6.99622 5.46254 6.93198 5.62414 6.81174C5.78575 6.69149 5.90626 6.52143 5.96836 6.326C6.03045 6.13058 6.03094 5.91985 5.96973 5.72413L5.57518 4.46251L6.61409 3.67909C6.77434 3.55811 6.89347 3.38794 6.95446 3.19288C7.01545 2.99782 7.01517 2.78785 6.95368 2.59296C6.89219 2.39806 6.77262 2.22822 6.61205 2.10769C6.45148 1.98716 6.25813 1.9221 6.05962 1.92181H4.78346L4.3962 0.675557C4.3353 0.479387 4.21564 0.308256 4.05446 0.18684C3.89329 0.0654249 3.69893 0 3.49942 0C3.2999 0 3.10555 0.0654249 2.94437 0.18684C2.78319 0.308256 2.66353 0.479387 2.60263 0.675557L2.21538 1.92181H0.940385C0.741867 1.9221 0.548517 1.98716 0.38795 2.10769C0.227383 2.22822 0.107814 2.39806 0.0463203 2.59296C-0.0151733 2.78785 -0.0154455 2.99782 0.0455427 3.19288C0.106531 3.38794 0.22566 3.55811 0.385913 3.67909H0.384746Z" fill="#003686"/>
</svg>
