<svg width="7" height="7" viewBox="0 0 7 7" fill="none" xmlns="http://www.w3.org/2000/svg">
<path d="M6.95092 2.59254C6.89125 2.39635 6.77203 2.22521 6.61091 2.10441C6.44978 1.98362 6.2553 1.9196 6.05621 1.92181H4.78169L4.39458 0.675557C4.33371 0.479387 4.21408 0.308256 4.05297 0.18684C3.89185 0.0654249 3.69757 0 3.49813 0C3.29869 0 3.1044 0.0654249 2.94328 0.18684C2.78217 0.308256 2.66255 0.479387 2.60167 0.675557L2.21456 1.92181H0.940038C0.741594 1.9221 0.548315 1.98716 0.387807 2.10769C0.2273 2.22822 0.107774 2.39806 0.0463032 2.59296C-0.0151677 2.78785 -0.0154398 2.99782 0.0455259 3.19288C0.106492 3.38794 0.225576 3.55811 0.385771 3.67909L1.42313 4.46251L1.02872 5.72413C0.964984 5.9198 0.964176 6.13151 1.02642 6.32769C1.08866 6.52388 1.21062 6.69403 1.37412 6.81279C1.53481 6.93536 1.72955 7.00102 1.9293 6.99999C2.12906 6.99896 2.32315 6.93129 2.48265 6.80706L3.49813 6.03509L4.51389 6.80616C4.6743 6.92803 4.86798 6.99422 5.0671 6.99522C5.26622 6.99622 5.46052 6.93198 5.62207 6.81174C5.78361 6.69149 5.90408 6.52143 5.96616 6.326C6.02823 6.13058 6.02871 5.91985 5.96753 5.72413L5.57313 4.46251L6.61165 3.67909C6.77367 3.55963 6.89416 3.38946 6.95526 3.19377C7.01636 2.99808 7.01484 2.78727 6.95092 2.59254ZM6.26742 3.19246L5.05853 4.10515C5.00888 4.14256 4.97194 4.19522 4.95297 4.25561C4.93401 4.316 4.93399 4.38103 4.95293 4.44142L5.41239 5.90884C5.43564 5.98326 5.43544 6.06339 5.41182 6.13769C5.38821 6.21199 5.34239 6.27665 5.28095 6.32236C5.21951 6.36807 5.14563 6.39248 5.06992 6.39208C4.9942 6.39168 4.92056 6.36649 4.85958 6.32013L3.67082 5.41618C3.62076 5.37819 3.56025 5.35771 3.49813 5.35771C3.436 5.35771 3.3755 5.37819 3.32543 5.41618L2.13667 6.32013C2.07573 6.36711 2.00188 6.39282 1.92584 6.39354C1.84979 6.39425 1.77551 6.36993 1.71375 6.3241C1.65198 6.27827 1.60596 6.21331 1.58235 6.13865C1.55873 6.06398 1.55875 5.98349 1.5824 5.90884L2.04332 4.44142C2.06226 4.38103 2.06224 4.316 2.04328 4.25561C2.02432 4.19522 1.98737 4.14256 1.93772 4.10515L0.728833 3.19246C0.667952 3.14642 0.622716 3.08168 0.599584 3.0075C0.576453 2.93331 0.576611 2.85347 0.600034 2.77938C0.623458 2.7053 0.66895 2.64075 0.730012 2.59496C0.791074 2.54918 0.864583 2.5245 0.940038 2.52444H2.42781C2.48957 2.52444 2.54974 2.50419 2.59964 2.46661C2.64955 2.42903 2.68663 2.37606 2.70552 2.31533L3.15769 0.859662C3.1809 0.785172 3.22639 0.72021 3.28762 0.674126C3.34885 0.628042 3.42266 0.603213 3.49842 0.603213C3.57418 0.603213 3.64798 0.628042 3.70921 0.674126C3.77044 0.72021 3.81594 0.785172 3.83915 0.859662L4.29131 2.31533C4.31021 2.37606 4.34728 2.42903 4.39719 2.46661C4.4471 2.50419 4.50727 2.52444 4.56903 2.52444H6.0568C6.13225 2.5245 6.20576 2.54918 6.26682 2.59496C6.32789 2.64075 6.37338 2.7053 6.3968 2.77938C6.42023 2.85347 6.42038 2.93331 6.39725 3.0075C6.37412 3.08168 6.32888 3.14642 6.268 3.19246H6.26742Z" fill="#003686"/>
</svg>
