<svg width="52" height="37" viewBox="0 0 52 37" fill="none" xmlns="http://www.w3.org/2000/svg">
<path d="M52 -0.543999C26.6154 -0.544001 0.0219783 16.4427 0.0219767 34.4L-3 34.4L-3 -2L52 -2L52 -0.543999Z" fill="#6E62F9"/>
<path d="M10.3908 11.3571C9.82474 11.3571 9.38904 11.1355 9.08367 10.6923C8.77831 10.2567 8.62563 9.64077 8.62563 8.8446C8.62563 8.04842 8.77086 7.425 9.06133 6.97433C9.34435 6.53117 9.7875 6.3096 10.3908 6.3096C10.7557 6.3096 11.0685 6.41099 11.3292 6.61379C11.5825 6.8166 11.7798 7.10577 11.9213 7.48133C12.0554 7.8644 12.1224 8.31882 12.1224 8.8446C12.1224 9.64077 11.9809 10.2567 11.6979 10.6923C11.4149 11.1355 10.9792 11.3571 10.3908 11.3571ZM10.3796 10.3769C10.5733 10.3769 10.7148 10.2492 10.8041 9.9938C10.8861 9.73842 10.927 9.35535 10.927 8.8446C10.927 8.32633 10.8861 7.93575 10.8041 7.67286C10.7148 7.41748 10.5733 7.2898 10.3796 7.2898C10.1785 7.2898 10.0333 7.41748 9.94391 7.67286C9.85453 7.93575 9.80984 8.32257 9.80984 8.83333C9.80984 9.3516 9.85453 9.73842 9.94391 9.9938C10.0333 10.2492 10.1785 10.3769 10.3796 10.3769ZM5.14 11.2444L9.29594 3.2L10.469 3.2L6.31305 11.2444L5.14 11.2444ZM5.22938 8.14606C4.84953 8.14606 4.52927 8.04466 4.2686 7.84186C4.00792 7.64657 3.81055 7.36115 3.67649 6.9856C3.53498 6.61755 3.46422 6.16688 3.46422 5.63359C3.46422 4.83742 3.60945 4.214 3.89992 3.76333C4.19039 3.32017 4.63354 3.09859 5.22938 3.09859C5.59433 3.09859 5.90714 3.2 6.16782 3.4028C6.42104 3.6056 6.61841 3.89477 6.75992 4.27033C6.89399 4.6534 6.96102 5.10782 6.96102 5.63359C6.96102 6.42977 6.81951 7.04568 6.53649 7.48133C6.24602 7.92448 5.81031 8.14606 5.22938 8.14606ZM5.21821 7.1546C5.41185 7.1546 5.55336 7.02691 5.64274 6.77153C5.72467 6.52366 5.76563 6.14059 5.76563 5.62233C5.76563 5.10406 5.72467 4.71349 5.64274 4.4506C5.55336 4.19522 5.41185 4.06753 5.21821 4.06753C5.02456 4.06753 4.88305 4.19522 4.79367 4.4506C4.69685 4.70597 4.64844 5.09655 4.64844 5.62233C4.64844 6.14059 4.69685 6.52366 4.79367 6.77153C4.88305 7.02691 5.02456 7.1546 5.21821 7.1546Z" fill="white"/>
<path d="M22.3516 20.9667C21.5364 5.59424 33.7856 2.48575 45.9844 -0.266667C11.3398 3.21303 -1.34586 23.5783 -0.369961 37C0.605943 19.1044 14.1875 20.1 22.3516 20.9667Z" fill="url(#paint0_linear_2062_1769)"/>
<defs>
<linearGradient id="paint0_linear_2062_1769" x1="13.7578" y1="12.7333" x2="40.5625" y2="45.1761" gradientUnits="userSpaceOnUse">
<stop stop-color="#889BFF"/>
<stop offset="1" stop-color="white" stop-opacity="0"/>
</linearGradient>
</defs>
</svg>
