<svg width="22" height="20" viewBox="0 0 22 20" fill="none" xmlns="http://www.w3.org/2000/svg">
<path d="M16.0396 0C15.0078 0.0156446 13.9985 0.296417 13.1137 0.813962C12.2288 1.33151 11.4997 2.0675 11 2.94761C10.5003 2.0675 9.77118 1.33151 8.88632 0.813962C8.00146 0.296417 6.99216 0.0156446 5.96037 0C4.31556 0.0696625 2.76589 0.771072 1.64991 1.95099C0.533927 3.13091 -0.0576437 4.69343 0.00443589 6.29717C0.00443589 12.3487 10.0434 19.3381 10.4704 19.6347L11 20L11.5296 19.6347C11.9566 19.3399 21.9956 12.3487 21.9956 6.29717C22.0576 4.69343 21.4661 3.13091 20.3501 1.95099C19.2341 0.771072 17.6844 0.0696625 16.0396 0ZM11 17.8009C8.01929 15.6304 1.83703 10.2979 1.83703 6.29717C1.77439 5.167 2.17273 4.05853 2.94517 3.21352C3.7176 2.36851 4.80147 1.85552 5.96037 1.78643C7.11927 1.85552 8.20313 2.36851 8.97557 3.21352C9.748 4.05853 10.1463 5.167 10.0837 6.29717H11.9163C11.8537 5.167 12.252 4.05853 13.0244 3.21352C13.7969 2.36851 14.8807 1.85552 16.0396 1.78643C17.1985 1.85552 18.2824 2.36851 19.0548 3.21352C19.8273 4.05853 20.2256 5.167 20.163 6.29717C20.163 10.2997 13.9807 15.6304 11 17.8009Z" fill="#595959"/>
</svg>
