<svg width="24" height="24" viewBox="0 0 24 24" fill="none" xmlns="http://www.w3.org/2000/svg">
<path d="M17.4978 0.960938C16.3722 0.978209 15.2711 1.28818 14.3058 1.85955C13.3405 2.43092 12.5451 3.24346 12 4.2151C11.4549 3.24346 10.6595 2.43092 9.69417 1.85955C8.72886 1.28818 7.62781 0.978209 6.50222 0.960938C4.70788 1.03784 3.01733 1.8122 1.7999 3.11483C0.582466 4.41746 -0.0628841 6.14248 0.00483915 7.91302C0.00483915 14.5939 10.9564 22.3102 11.4222 22.6376L12 23.0409L12.5778 22.6376C13.0436 22.3122 23.9952 14.5939 23.9952 7.91302C24.0629 6.14248 23.4175 4.41746 22.2001 3.11483C20.9827 1.8122 19.2921 1.03784 17.4978 0.960938ZM12 20.6131C8.74831 18.2169 2.00403 12.3298 2.00403 7.91302C1.9357 6.66531 2.37025 5.44156 3.21291 4.50867C4.05557 3.57578 5.23796 3.00943 6.50222 2.93316C7.76647 3.00943 8.94887 3.57578 9.79153 4.50867C10.6342 5.44156 11.0687 6.66531 11.0004 7.91302H12.9996C12.9313 6.66531 13.3658 5.44156 14.2085 4.50867C15.0511 3.57578 16.2335 3.00943 17.4978 2.93316C18.762 3.00943 19.9444 3.57578 20.7871 4.50867C21.6297 5.44156 22.0643 6.66531 21.996 7.91302C21.996 12.3318 15.2517 18.2169 12 20.6131Z" fill="#003686"/>
</svg>
