<svg width="25" height="25" viewBox="0 0 25 25" fill="none" xmlns="http://www.w3.org/2000/svg">
<path fill-rule="evenodd" clip-rule="evenodd" d="M0.217305 3.46238C0.795474 1.72694 2.16727 0.488784 3.95671 0.0872561C4.4854 -0.0313824 6.67588 -0.0282713 7.26057 0.0918935C8.70942 0.389693 10.03 1.40449 10.6769 2.71697C11.162 3.70142 11.2245 4.02528 11.2282 5.57568C11.2311 6.7434 11.2167 6.95502 11.1042 7.40116C10.6333 9.26721 9.26341 10.6393 7.40243 11.1086C6.94868 11.223 6.74297 11.2372 5.57072 11.2343C4.01241 11.2305 3.6865 11.1669 2.70353 10.6748C1.3693 10.0067 0.380585 8.70871 0.0821974 7.23321C0.00220099 6.83762 -0.0115329 6.49638 0.00777659 5.38407C0.0311945 4.0389 0.0340703 4.01236 0.217305 3.46238ZM8.56821 4.08791C8.31414 3.43837 7.72681 2.8713 7.05556 2.62745C6.77261 2.52466 6.5568 2.50112 5.77614 2.48773C4.6883 2.46907 4.41538 2.50716 3.89649 2.75002C3.18339 3.0838 2.64977 3.80485 2.51736 4.61372C2.44118 5.07894 2.44506 6.23574 2.52423 6.66556C2.70236 7.63257 3.42285 8.4112 4.3652 8.65512C4.78449 8.7636 6.28312 8.77957 6.75635 8.68053C7.43899 8.53771 8.14364 7.99265 8.46451 7.35931C8.69669 6.90113 8.75526 6.46268 8.72744 5.39229C8.70596 4.56769 8.68331 4.38219 8.56821 4.08791ZM13.8892 17.5975C14.4114 15.5404 15.9759 14.1342 18.1198 13.7948C18.6424 13.7121 20.6748 13.7692 21.1164 13.8791C22.0453 14.1103 22.7594 14.4985 23.4315 15.1378C24.199 15.8679 24.7029 16.7579 24.9046 17.7394C25.0269 18.3344 25.0332 20.4554 24.9144 21.0159C24.7983 21.5638 24.5104 22.2744 24.2255 22.7169C23.8747 23.2616 23.0575 24.0451 22.5294 24.343C22.289 24.4787 21.8415 24.6757 21.5348 24.781C20.979 24.9716 20.9729 24.9723 19.6135 24.9948C18.0767 25.0201 17.6168 24.9613 16.8455 24.6404C15.7797 24.1971 14.814 23.2992 14.3157 22.2883C13.832 21.3065 13.769 20.9804 13.7638 19.4296C13.7598 18.2509 13.7733 18.0537 13.8892 17.5975ZM22.3687 17.9444C22.1273 17.2749 21.5604 16.6869 20.9094 16.4307C20.6031 16.3102 20.4501 16.2938 19.4806 16.2781C18.5466 16.2629 18.348 16.2757 18.0601 16.3702C17.155 16.6671 16.5108 17.3622 16.3121 18.2561C16.2645 18.4703 16.2486 18.9165 16.265 19.5769C16.2865 20.4403 16.3079 20.6203 16.4242 20.9173C16.6789 21.5676 17.2673 22.1353 17.9371 22.3769C18.3495 22.5257 19.6908 22.5905 20.3222 22.4921C21.475 22.3125 22.3042 21.483 22.4838 20.3301C22.5822 19.6985 22.5175 18.357 22.3687 17.9444ZM22.9357 4.18566C23.5214 3.59987 23.5214 2.65013 22.9357 2.06434C22.3499 1.47855 21.4001 1.47855 20.8143 2.06434L2.06434 20.8143C1.47855 21.4001 1.47855 22.3499 2.06434 22.9357C2.65013 23.5214 3.59987 23.5214 4.18566 22.9357L22.9357 4.18566Z" fill="#0367FF"/>
</svg>
