<svg width="13" height="12" viewBox="0 0 13 12" fill="none" xmlns="http://www.w3.org/2000/svg">
<path fill-rule="evenodd" clip-rule="evenodd" d="M2.09258 0.0418829C1.23365 0.234616 0.575187 0.828933 0.297666 1.66194C0.209713 1.92594 0.208333 1.93867 0.197092 2.58436C0.187824 3.11826 0.194416 3.28206 0.232814 3.47194C0.37604 4.18018 0.850623 4.80324 1.49105 5.1239C1.96288 5.36011 2.11932 5.39065 2.86731 5.39246C3.42998 5.39384 3.52873 5.38705 3.74652 5.33213C4.6398 5.10685 5.29736 4.44826 5.52335 3.55256C5.57739 3.33841 5.58429 3.23683 5.58291 2.67633C5.5811 1.93213 5.55113 1.77668 5.31826 1.30414C5.00778 0.674155 4.37388 0.187053 3.67843 0.0441089C3.39778 -0.0135702 2.34635 -0.0150636 2.09258 0.0418829ZM3.58003 1.26117C3.90223 1.37822 4.18415 1.65042 4.3061 1.9622C4.36135 2.10345 4.37222 2.19249 4.38253 2.5883C4.39588 3.10209 4.36777 3.31254 4.25632 3.53247C4.10231 3.83647 3.76407 4.0981 3.43641 4.16666C3.20926 4.21419 2.48992 4.20653 2.28866 4.15446C1.83633 4.03738 1.49049 3.66363 1.40499 3.19947C1.36699 2.99315 1.36513 2.43789 1.40169 2.21458C1.46525 1.82633 1.72139 1.48023 2.06368 1.32001C2.31274 1.20344 2.44374 1.18515 2.96591 1.19411C3.34062 1.20054 3.44421 1.21184 3.58003 1.26117ZM8.89085 6.6215C7.86179 6.78442 7.11084 7.45941 6.86016 8.4468C6.80455 8.6658 6.79807 8.76042 6.79996 9.32619C6.80247 10.0706 6.8327 10.2271 7.06492 10.6984C7.30407 11.1836 7.76761 11.6146 8.27918 11.8274C8.64944 11.9814 8.87017 12.0097 9.60782 11.9975C10.2604 11.9867 10.2633 11.9864 10.5301 11.8949C10.6773 11.8443 10.8921 11.7498 11.0075 11.6847C11.261 11.5416 11.6532 11.1656 11.8216 10.9041C11.9584 10.6917 12.0965 10.3506 12.1523 10.0877C12.2093 9.81859 12.2063 8.80051 12.1476 8.51491C12.0508 8.04381 11.8089 7.61658 11.4405 7.26617C11.1179 6.95926 10.7751 6.77292 10.3292 6.66196C10.1173 6.60924 9.14169 6.5818 8.89085 6.6215ZM10.2299 7.88675C10.5423 8.00971 10.8145 8.29197 10.9303 8.61333C11.0017 8.81136 11.0328 9.45527 10.9856 9.75843C10.8994 10.3119 10.5014 10.71 9.94803 10.7962C9.64493 10.8434 9.00114 10.8123 8.80315 10.7409C8.48165 10.625 8.19923 10.3525 8.07699 10.0403C8.02115 9.89777 8.0109 9.81135 8.00056 9.39691C7.99267 9.07992 8.00031 8.86574 8.02316 8.76292C8.11855 8.33384 8.42776 8.00019 8.86223 7.8577C9.00041 7.81236 9.09574 7.80619 9.54404 7.81349C10.0094 7.82104 10.0829 7.8289 10.2299 7.88675Z" fill="#262626"/>
<path d="M1.69336 10.5L10.6934 1.5" stroke="#262626" stroke-linecap="round"/>
</svg>
