<svg width="16" height="16" viewBox="0 0 16 16" fill="none" xmlns="http://www.w3.org/2000/svg">
<path fill-rule="evenodd" clip-rule="evenodd" d="M5.77465 0.028036C3.72032 0.259876 1.96162 1.37899 0.910029 3.12351C0.478504 3.83937 0.210921 4.57113 0.0571493 5.45609C-0.0248061 5.92759 -0.0172958 7.02027 0.0711997 7.50435C0.447274 9.56163 1.65996 11.2199 3.47346 12.1567C4.44362 12.6579 5.32182 12.8694 6.4302 12.8686C7.7802 12.8676 8.88708 12.5337 10.0122 11.7882L10.3867 11.54L12.5626 13.7104C14.0301 15.1743 14.7791 15.9 14.8636 15.9397C15.0331 16.0196 15.3853 16.0202 15.5364 15.941C15.9128 15.7435 16.0854 15.3382 15.959 14.9483C15.9072 14.7885 15.7896 14.6648 13.7158 12.5867L11.5272 10.3937L11.769 10.0364C12.9299 8.32063 13.1848 6.17558 12.4641 4.18743C12.2279 3.53581 11.7771 2.77871 11.2889 2.21373C10.4759 1.27301 9.32524 0.546259 8.14604 0.228804C7.42456 0.034576 6.44866 -0.0480342 5.77465 0.028036ZM6.89299 1.62348C8.08327 1.75381 9.01184 2.19568 9.84316 3.02738C10.691 3.87557 11.142 4.83823 11.2546 6.03993C11.3552 7.11414 11.0674 8.20845 10.4328 9.16429C10.1693 9.56122 9.55108 10.1794 9.15413 10.4429C7.54904 11.5084 5.57713 11.5645 3.94566 10.5909C2.76837 9.88838 1.94015 8.70608 1.66797 7.33938C1.56839 6.83934 1.56839 6.04153 1.66797 5.54148C1.94866 4.1321 2.81672 2.92984 4.06723 2.21849C4.903 1.74311 5.95746 1.52106 6.89299 1.62348Z" fill="#0367FF"/>
</svg>
