<svg width="10" height="11" viewBox="0 0 10 11" fill="none" xmlns="http://www.w3.org/2000/svg">
<path fill-rule="evenodd" clip-rule="evenodd" d="M0.258283 0.519275C0.124738 0.557796 0.00037653 0.735629 0.00037653 0.888092C0.00037653 1.05727 -0.0832869 0.967422 2.2436 3.29691L4.44473 5.50051L2.24346 7.70411C0.21776 9.73195 0.040352 9.91471 0.0191724 9.99546C-0.062537 10.3067 0.197187 10.5665 0.508355 10.4848C0.589087 10.4636 0.77179 10.2861 2.79903 8.25985L5.00198 6.05793L7.20493 8.25985C9.23218 10.2861 9.41488 10.4636 9.49561 10.4848C9.80678 10.5665 10.0665 10.3067 9.98479 9.99546C9.96362 9.91471 9.78621 9.73195 7.76051 7.70411L5.55924 5.50051L7.76051 3.29691C9.78621 1.26907 9.96362 1.08631 9.98479 1.00555C10.0665 0.694293 9.80678 0.434492 9.49561 0.516226C9.41488 0.537412 9.23218 0.714873 7.20493 2.74117L5.00198 4.94309L2.79903 2.74131C0.889861 0.833134 0.585668 0.536708 0.517928 0.518474C0.425512 0.493594 0.34646 0.493828 0.258283 0.519275Z" fill="#636363"/>
</svg>
