<svg width="15" height="13" viewBox="0 0 15 13" fill="none" xmlns="http://www.w3.org/2000/svg">
<path fill-rule="evenodd" clip-rule="evenodd" d="M2.31258 7.12239C1.27001 7.28531 0.509206 7.9603 0.255243 8.94769C0.198902 9.16669 0.192338 9.26131 0.19425 9.82708C0.19679 10.5715 0.227415 10.728 0.462684 11.1993C0.704974 11.6845 1.1746 12.1155 1.69288 12.3283C2.06801 12.4823 2.29163 12.5106 3.03897 12.4984C3.70008 12.4876 3.70302 12.4873 3.9733 12.3958C4.12243 12.3452 4.34009 12.2507 4.457 12.1856C4.71382 12.0425 5.1112 11.6665 5.28179 11.405C5.42036 11.1926 5.56033 10.8515 5.61679 10.5885C5.67458 10.3195 5.6715 9.3014 5.61205 9.0158C5.51398 8.5447 5.26889 8.11747 4.89568 7.76706C4.56882 7.46015 4.22159 7.27381 3.76983 7.16285C3.55511 7.11013 2.56672 7.08269 2.31258 7.12239ZM3.66916 8.38764C3.98575 8.5106 4.26143 8.79286 4.37882 9.11422C4.45118 9.31225 4.48266 9.95616 4.43482 10.2593C4.34748 10.8128 3.94422 11.2109 3.38363 11.2971C3.07655 11.3443 2.42432 11.3132 2.22373 11.2418C1.89801 11.1259 1.61188 10.8534 1.48804 10.5412C1.43147 10.3987 1.42108 10.3122 1.41061 9.8978C1.40262 9.58081 1.41035 9.36663 1.4335 9.26381C1.53014 8.83473 1.84341 8.50108 2.28358 8.35859C2.42358 8.31325 2.52016 8.30708 2.97435 8.31438C3.4458 8.32193 3.52023 8.32979 3.66916 8.38764Z" fill="#262626"/>
<path fill-rule="evenodd" clip-rule="evenodd" d="M2.31258 0.518873C1.27001 0.681795 0.509206 1.35678 0.255243 2.34418C0.198902 2.56317 0.192338 2.65779 0.19425 3.22356C0.19679 3.96795 0.227415 4.12451 0.462684 4.59575C0.704974 5.08099 1.1746 5.51199 1.69288 5.72478C2.06801 5.8788 2.29163 5.90704 3.03897 5.89486C3.70008 5.8841 3.70302 5.88376 3.9733 5.79224C4.12243 5.74172 4.34009 5.64716 4.457 5.58204C4.71382 5.43901 5.1112 5.06295 5.28179 4.8015C5.42036 4.5891 5.56033 4.24798 5.61679 3.98503C5.67458 3.71596 5.6715 2.69789 5.61205 2.41228C5.51398 1.94118 5.26889 1.51396 4.89568 1.16354C4.56882 0.856635 4.22159 0.670298 3.76983 0.559335C3.55511 0.506616 2.56672 0.479171 2.31258 0.518873ZM3.66916 1.78412C3.98575 1.90709 4.26143 2.18934 4.37882 2.5107C4.45118 2.70873 4.48266 3.35264 4.43482 3.65581C4.34748 4.20924 3.94422 4.60735 3.38363 4.69358C3.07655 4.7408 2.42432 4.70972 2.22373 4.63829C1.89801 4.52234 1.61188 4.24984 1.48804 3.93769C1.43147 3.79514 1.42108 3.70872 1.41061 3.29429C1.40262 2.97729 1.41035 2.76312 1.4335 2.6603C1.53014 2.23121 1.84341 1.89756 2.28358 1.75507C2.42358 1.70973 2.52016 1.70356 2.97435 1.71086C3.4458 1.71841 3.52023 1.72627 3.66916 1.78412Z" fill="#262626"/>
<path d="M9.68108 12L9.6811 1.49999" stroke="#262626" stroke-linecap="round"/>
<path d="M9.68114 1.49977L7.89018 3.97465" stroke="#262626"/>
<path d="M9.68081 1.49966L11.3383 3.99966" stroke="#262626"/>
</svg>
